<svg xmlns="http://www.w3.org/2000/svg" viewBox="0 0 1000 209" width="1000" height="209" role="img" aria-label="Contribution activity">
<defs>
<pattern id="g" width="34" height="34" patternUnits="userSpaceOnUse"><path d="M34 0H0V34" fill="none" stroke="#171d25" stroke-width="1"/></pattern>
<linearGradient id="bar" x1="0" y1="0" x2="0" y2="1"><stop offset="0%" stop-color="#e5383b"/><stop offset="100%" stop-color="#6a040f"/></linearGradient>
<linearGradient id="streak" x1="0" y1="0" x2="0" y2="1"><stop offset="0%" stop-color="#e5383b" stop-opacity="0"/><stop offset="50%" stop-color="#e5383b" stop-opacity="1"/><stop offset="100%" stop-color="#e5383b" stop-opacity="0"/></linearGradient>
<radialGradient id="glow" cx="50%" cy="50%" r="50%"><stop offset="0%" stop-color="#e5383b" stop-opacity="0.30"/><stop offset="100%" stop-color="#e5383b" stop-opacity="0"/></radialGradient>
<linearGradient id="rule" x1="0" y1="0" x2="1" y2="0"><stop offset="0%" stop-color="#e5383b" stop-opacity="1"/><stop offset="100%" stop-color="#e5383b" stop-opacity="0"/></linearGradient>
<clipPath id="frame"><rect width="1000" height="209" rx="8"/></clipPath>
</defs>
<style>.f{font-family:'Segoe UI',Roboto,Helvetica,Arial,sans-serif}
.m{font-family:'JetBrains Mono','Cascadia Mono',Consolas,'DejaVu Sans Mono',monospace}
.st{animation:sh 7s ease-in-out infinite}
.st2{animation-delay:.9s}.st3{animation-delay:1.8s}.st4{animation-delay:2.7s}.st5{animation-delay:3.6s}
@keyframes sh{0%,100%{opacity:.12}50%{opacity:.5}}
@keyframes rise{from{opacity:0;transform:translateY(7px)}to{opacity:1;transform:none}}
@keyframes fade{from{opacity:0}to{opacity:1}}
@keyframes pulse{0%,100%{opacity:.35}50%{opacity:1}}
.cl{animation:fade .5s ease-out backwards}</style>
<g clip-path="url(#frame)">
<rect width="1000" height="209" fill="#0d1117"/><rect width="1000" height="209" fill="url(#g)"/><rect x=".5" y=".5" width="999" height="208" rx="8" fill="none" stroke="#21262d"/><rect width="5" height="209" fill="url(#bar)"/>
<text class="m" x="40" y="34" font-size="13" letter-spacing="3.5" fill="#e5383b">// CONTRIBUTION ACTIVITY</text>
<text class="m" x="64" y="48" font-size="11" fill="#6e7681">Sep</text>
<rect class="cl" x="64" y="58" width="12" height="12" rx="2.5" fill="#161b22" style="animation-delay:0.00s"/>
<rect class="cl" x="64" y="73" width="12" height="12" rx="2.5" fill="#161b22" style="animation-delay:0.00s"/>
<rect class="cl" x="64" y="88" width="12" height="12" rx="2.5" fill="#161b22" style="animation-delay:0.00s"/>
<rect class="cl" x="64" y="103" width="12" height="12" rx="2.5" fill="#161b22" style="animation-delay:0.00s"/>
<rect class="cl" x="64" y="118" width="12" height="12" rx="2.5" fill="#161b22" style="animation-delay:0.00s"/>
<rect class="cl" x="64" y="133" width="12" height="12" rx="2.5" fill="#161b22" style="animation-delay:0.00s"/>
<rect class="cl" x="64" y="148" width="12" height="12" rx="2.5" fill="#161b22" style="animation-delay:0.00s"/>
<rect class="cl" x="79" y="58" width="12" height="12" rx="2.5" fill="#161b22" style="animation-delay:0.01s"/>
<rect class="cl" x="79" y="73" width="12" height="12" rx="2.5" fill="#161b22" style="animation-delay:0.01s"/>
<rect class="cl" x="79" y="88" width="12" height="12" rx="2.5" fill="#161b22" style="animation-delay:0.01s"/>
<rect class="cl" x="79" y="103" width="12" height="12" rx="2.5" fill="#161b22" style="animation-delay:0.01s"/>
<rect class="cl" x="79" y="118" width="12" height="12" rx="2.5" fill="#161b22" style="animation-delay:0.01s"/>
<rect class="cl" x="79" y="133" width="12" height="12" rx="2.5" fill="#161b22" style="animation-delay:0.01s"/>
<rect class="cl" x="79" y="148" width="12" height="12" rx="2.5" fill="#161b22" style="animation-delay:0.01s"/>
<rect class="cl" x="94" y="58" width="12" height="12" rx="2.5" fill="#161b22" style="animation-delay:0.02s"/>
<rect class="cl" x="94" y="73" width="12" height="12" rx="2.5" fill="#161b22" style="animation-delay:0.02s"/>
<rect class="cl" x="94" y="88" width="12" height="12" rx="2.5" fill="#161b22" style="animation-delay:0.02s"/>
<rect class="cl" x="94" y="103" width="12" height="12" rx="2.5" fill="#161b22" style="animation-delay:0.02s"/>
<rect class="cl" x="94" y="118" width="12" height="12" rx="2.5" fill="#161b22" style="animation-delay:0.02s"/>
<rect class="cl" x="94" y="133" width="12" height="12" rx="2.5" fill="#161b22" style="animation-delay:0.02s"/>
<rect class="cl" x="94" y="148" width="12" height="12" rx="2.5" fill="#161b22" style="animation-delay:0.02s"/>
<rect class="cl" x="109" y="58" width="12" height="12" rx="2.5" fill="#161b22" style="animation-delay:0.04s"/>
<rect class="cl" x="109" y="73" width="12" height="12" rx="2.5" fill="#161b22" style="animation-delay:0.04s"/>
<rect class="cl" x="109" y="88" width="12" height="12" rx="2.5" fill="#161b22" style="animation-delay:0.04s"/>
<rect class="cl" x="109" y="103" width="12" height="12" rx="2.5" fill="#161b22" style="animation-delay:0.04s"/>
<rect class="cl" x="109" y="118" width="12" height="12" rx="2.5" fill="#161b22" style="animation-delay:0.04s"/>
<rect class="cl" x="109" y="133" width="12" height="12" rx="2.5" fill="#161b22" style="animation-delay:0.04s"/>
<rect class="cl" x="109" y="148" width="12" height="12" rx="2.5" fill="#161b22" style="animation-delay:0.04s"/>
<text class="m" x="124" y="48" font-size="11" fill="#6e7681">Oct</text>
<rect class="cl" x="124" y="58" width="12" height="12" rx="2.5" fill="#161b22" style="animation-delay:0.05s"/>
<rect class="cl" x="124" y="73" width="12" height="12" rx="2.5" fill="#161b22" style="animation-delay:0.05s"/>
<rect class="cl" x="124" y="88" width="12" height="12" rx="2.5" fill="#161b22" style="animation-delay:0.05s"/>
<rect class="cl" x="124" y="103" width="12" height="12" rx="2.5" fill="#161b22" style="animation-delay:0.05s"/>
<rect class="cl" x="124" y="118" width="12" height="12" rx="2.5" fill="#161b22" style="animation-delay:0.05s"/>
<rect class="cl" x="124" y="133" width="12" height="12" rx="2.5" fill="#161b22" style="animation-delay:0.05s"/>
<rect class="cl" x="124" y="148" width="12" height="12" rx="2.5" fill="#161b22" style="animation-delay:0.05s"/>
<rect class="cl" x="139" y="58" width="12" height="12" rx="2.5" fill="#161b22" style="animation-delay:0.06s"/>
<rect class="cl" x="139" y="73" width="12" height="12" rx="2.5" fill="#161b22" style="animation-delay:0.06s"/>
<rect class="cl" x="139" y="88" width="12" height="12" rx="2.5" fill="#161b22" style="animation-delay:0.06s"/>
<rect class="cl" x="139" y="103" width="12" height="12" rx="2.5" fill="#161b22" style="animation-delay:0.06s"/>
<rect class="cl" x="139" y="118" width="12" height="12" rx="2.5" fill="#161b22" style="animation-delay:0.06s"/>
<rect class="cl" x="139" y="133" width="12" height="12" rx="2.5" fill="#161b22" style="animation-delay:0.06s"/>
<rect class="cl" x="139" y="148" width="12" height="12" rx="2.5" fill="#161b22" style="animation-delay:0.06s"/>
<rect class="cl" x="154" y="58" width="12" height="12" rx="2.5" fill="#161b22" style="animation-delay:0.07s"/>
<rect class="cl" x="154" y="73" width="12" height="12" rx="2.5" fill="#161b22" style="animation-delay:0.07s"/>
<rect class="cl" x="154" y="88" width="12" height="12" rx="2.5" fill="#161b22" style="animation-delay:0.07s"/>
<rect class="cl" x="154" y="103" width="12" height="12" rx="2.5" fill="#161b22" style="animation-delay:0.07s"/>
<rect class="cl" x="154" y="118" width="12" height="12" rx="2.5" fill="#161b22" style="animation-delay:0.07s"/>
<rect class="cl" x="154" y="133" width="12" height="12" rx="2.5" fill="#161b22" style="animation-delay:0.07s"/>
<rect class="cl" x="154" y="148" width="12" height="12" rx="2.5" fill="#161b22" style="animation-delay:0.07s"/>
<rect class="cl" x="169" y="58" width="12" height="12" rx="2.5" fill="#161b22" style="animation-delay:0.08s"/>
<rect class="cl" x="169" y="73" width="12" height="12" rx="2.5" fill="#161b22" style="animation-delay:0.08s"/>
<rect class="cl" x="169" y="88" width="12" height="12" rx="2.5" fill="#161b22" style="animation-delay:0.08s"/>
<rect class="cl" x="169" y="103" width="12" height="12" rx="2.5" fill="#161b22" style="animation-delay:0.08s"/>
<rect class="cl" x="169" y="118" width="12" height="12" rx="2.5" fill="#161b22" style="animation-delay:0.08s"/>
<rect class="cl" x="169" y="133" width="12" height="12" rx="2.5" fill="#161b22" style="animation-delay:0.08s"/>
<rect class="cl" x="169" y="148" width="12" height="12" rx="2.5" fill="#161b22" style="animation-delay:0.08s"/>
<text class="m" x="184" y="48" font-size="11" fill="#6e7681">Nov</text>
<rect class="cl" x="184" y="58" width="12" height="12" rx="2.5" fill="#161b22" style="animation-delay:0.10s"/>
<rect class="cl" x="184" y="73" width="12" height="12" rx="2.5" fill="#161b22" style="animation-delay:0.10s"/>
<rect class="cl" x="184" y="88" width="12" height="12" rx="2.5" fill="#161b22" style="animation-delay:0.10s"/>
<rect class="cl" x="184" y="103" width="12" height="12" rx="2.5" fill="#161b22" style="animation-delay:0.10s"/>
<rect class="cl" x="184" y="118" width="12" height="12" rx="2.5" fill="#161b22" style="animation-delay:0.10s"/>
<rect class="cl" x="184" y="133" width="12" height="12" rx="2.5" fill="#161b22" style="animation-delay:0.10s"/>
<rect class="cl" x="184" y="148" width="12" height="12" rx="2.5" fill="#161b22" style="animation-delay:0.10s"/>
<rect class="cl" x="199" y="58" width="12" height="12" rx="2.5" fill="#161b22" style="animation-delay:0.11s"/>
<rect class="cl" x="199" y="73" width="12" height="12" rx="2.5" fill="#161b22" style="animation-delay:0.11s"/>
<rect class="cl" x="199" y="88" width="12" height="12" rx="2.5" fill="#161b22" style="animation-delay:0.11s"/>
<rect class="cl" x="199" y="103" width="12" height="12" rx="2.5" fill="#161b22" style="animation-delay:0.11s"/>
<rect class="cl" x="199" y="118" width="12" height="12" rx="2.5" fill="#161b22" style="animation-delay:0.11s"/>
<rect class="cl" x="199" y="133" width="12" height="12" rx="2.5" fill="#161b22" style="animation-delay:0.11s"/>
<rect class="cl" x="199" y="148" width="12" height="12" rx="2.5" fill="#161b22" style="animation-delay:0.11s"/>
<rect class="cl" x="214" y="58" width="12" height="12" rx="2.5" fill="#161b22" style="animation-delay:0.12s"/>
<rect class="cl" x="214" y="73" width="12" height="12" rx="2.5" fill="#161b22" style="animation-delay:0.12s"/>
<rect class="cl" x="214" y="88" width="12" height="12" rx="2.5" fill="#161b22" style="animation-delay:0.12s"/>
<rect class="cl" x="214" y="103" width="12" height="12" rx="2.5" fill="#161b22" style="animation-delay:0.12s"/>
<rect class="cl" x="214" y="118" width="12" height="12" rx="2.5" fill="#161b22" style="animation-delay:0.12s"/>
<rect class="cl" x="214" y="133" width="12" height="12" rx="2.5" fill="#161b22" style="animation-delay:0.12s"/>
<rect class="cl" x="214" y="148" width="12" height="12" rx="2.5" fill="#161b22" style="animation-delay:0.12s"/>
<rect class="cl" x="229" y="58" width="12" height="12" rx="2.5" fill="#161b22" style="animation-delay:0.13s"/>
<rect class="cl" x="229" y="73" width="12" height="12" rx="2.5" fill="#161b22" style="animation-delay:0.13s"/>
<rect class="cl" x="229" y="88" width="12" height="12" rx="2.5" fill="#161b22" style="animation-delay:0.13s"/>
<rect class="cl" x="229" y="103" width="12" height="12" rx="2.5" fill="#161b22" style="animation-delay:0.13s"/>
<rect class="cl" x="229" y="118" width="12" height="12" rx="2.5" fill="#161b22" style="animation-delay:0.13s"/>
<rect class="cl" x="229" y="133" width="12" height="12" rx="2.5" fill="#161b22" style="animation-delay:0.13s"/>
<rect class="cl" x="229" y="148" width="12" height="12" rx="2.5" fill="#161b22" style="animation-delay:0.13s"/>
<rect class="cl" x="244" y="58" width="12" height="12" rx="2.5" fill="#161b22" style="animation-delay:0.14s"/>
<rect class="cl" x="244" y="73" width="12" height="12" rx="2.5" fill="#161b22" style="animation-delay:0.14s"/>
<rect class="cl" x="244" y="88" width="12" height="12" rx="2.5" fill="#161b22" style="animation-delay:0.14s"/>
<rect class="cl" x="244" y="103" width="12" height="12" rx="2.5" fill="#161b22" style="animation-delay:0.14s"/>
<rect class="cl" x="244" y="118" width="12" height="12" rx="2.5" fill="#161b22" style="animation-delay:0.14s"/>
<rect class="cl" x="244" y="133" width="12" height="12" rx="2.5" fill="#161b22" style="animation-delay:0.14s"/>
<rect class="cl" x="244" y="148" width="12" height="12" rx="2.5" fill="#161b22" style="animation-delay:0.14s"/>
<text class="m" x="259" y="48" font-size="11" fill="#6e7681">Dec</text>
<rect class="cl" x="259" y="58" width="12" height="12" rx="2.5" fill="#161b22" style="animation-delay:0.16s"/>
<rect class="cl" x="259" y="73" width="12" height="12" rx="2.5" fill="#161b22" style="animation-delay:0.16s"/>
<rect class="cl" x="259" y="88" width="12" height="12" rx="2.5" fill="#161b22" style="animation-delay:0.16s"/>
<rect class="cl" x="259" y="103" width="12" height="12" rx="2.5" fill="#161b22" style="animation-delay:0.16s"/>
<rect class="cl" x="259" y="118" width="12" height="12" rx="2.5" fill="#161b22" style="animation-delay:0.16s"/>
<rect class="cl" x="259" y="133" width="12" height="12" rx="2.5" fill="#161b22" style="animation-delay:0.16s"/>
<rect class="cl" x="259" y="148" width="12" height="12" rx="2.5" fill="#161b22" style="animation-delay:0.16s"/>
<rect class="cl" x="274" y="58" width="12" height="12" rx="2.5" fill="#161b22" style="animation-delay:0.17s"/>
<rect class="cl" x="274" y="73" width="12" height="12" rx="2.5" fill="#161b22" style="animation-delay:0.17s"/>
<rect class="cl" x="274" y="88" width="12" height="12" rx="2.5" fill="#161b22" style="animation-delay:0.17s"/>
<rect class="cl" x="274" y="103" width="12" height="12" rx="2.5" fill="#161b22" style="animation-delay:0.17s"/>
<rect class="cl" x="274" y="118" width="12" height="12" rx="2.5" fill="#161b22" style="animation-delay:0.17s"/>
<rect class="cl" x="274" y="133" width="12" height="12" rx="2.5" fill="#161b22" style="animation-delay:0.17s"/>
<rect class="cl" x="274" y="148" width="12" height="12" rx="2.5" fill="#161b22" style="animation-delay:0.17s"/>
<rect class="cl" x="289" y="58" width="12" height="12" rx="2.5" fill="#161b22" style="animation-delay:0.18s"/>
<rect class="cl" x="289" y="73" width="12" height="12" rx="2.5" fill="#161b22" style="animation-delay:0.18s"/>
<rect class="cl" x="289" y="88" width="12" height="12" rx="2.5" fill="#161b22" style="animation-delay:0.18s"/>
<rect class="cl" x="289" y="103" width="12" height="12" rx="2.5" fill="#161b22" style="animation-delay:0.18s"/>
<rect class="cl" x="289" y="118" width="12" height="12" rx="2.5" fill="#161b22" style="animation-delay:0.18s"/>
<rect class="cl" x="289" y="133" width="12" height="12" rx="2.5" fill="#161b22" style="animation-delay:0.18s"/>
<rect class="cl" x="289" y="148" width="12" height="12" rx="2.5" fill="#161b22" style="animation-delay:0.18s"/>
<rect class="cl" x="304" y="58" width="12" height="12" rx="2.5" fill="#161b22" style="animation-delay:0.19s"/>
<rect class="cl" x="304" y="73" width="12" height="12" rx="2.5" fill="#161b22" style="animation-delay:0.19s"/>
<rect class="cl" x="304" y="88" width="12" height="12" rx="2.5" fill="#161b22" style="animation-delay:0.19s"/>
<rect class="cl" x="304" y="103" width="12" height="12" rx="2.5" fill="#161b22" style="animation-delay:0.19s"/>
<rect class="cl" x="304" y="118" width="12" height="12" rx="2.5" fill="#161b22" style="animation-delay:0.19s"/>
<rect class="cl" x="304" y="133" width="12" height="12" rx="2.5" fill="#161b22" style="animation-delay:0.19s"/>
<rect class="cl" x="304" y="148" width="12" height="12" rx="2.5" fill="#161b22" style="animation-delay:0.19s"/>
<text class="m" x="319" y="48" font-size="11" fill="#6e7681">Jan</text>
<rect class="cl" x="319" y="58" width="12" height="12" rx="2.5" fill="#161b22" style="animation-delay:0.20s"/>
<rect class="cl" x="319" y="73" width="12" height="12" rx="2.5" fill="#161b22" style="animation-delay:0.20s"/>
<rect class="cl" x="319" y="88" width="12" height="12" rx="2.5" fill="#161b22" style="animation-delay:0.20s"/>
<rect class="cl" x="319" y="103" width="12" height="12" rx="2.5" fill="#161b22" style="animation-delay:0.20s"/>
<rect class="cl" x="319" y="118" width="12" height="12" rx="2.5" fill="#161b22" style="animation-delay:0.20s"/>
<rect class="cl" x="319" y="133" width="12" height="12" rx="2.5" fill="#161b22" style="animation-delay:0.20s"/>
<rect class="cl" x="319" y="148" width="12" height="12" rx="2.5" fill="#161b22" style="animation-delay:0.20s"/>
<rect class="cl" x="334" y="58" width="12" height="12" rx="2.5" fill="#161b22" style="animation-delay:0.22s"/>
<rect class="cl" x="334" y="73" width="12" height="12" rx="2.5" fill="#161b22" style="animation-delay:0.22s"/>
<rect class="cl" x="334" y="88" width="12" height="12" rx="2.5" fill="#161b22" style="animation-delay:0.22s"/>
<rect class="cl" x="334" y="103" width="12" height="12" rx="2.5" fill="#161b22" style="animation-delay:0.22s"/>
<rect class="cl" x="334" y="118" width="12" height="12" rx="2.5" fill="#161b22" style="animation-delay:0.22s"/>
<rect class="cl" x="334" y="133" width="12" height="12" rx="2.5" fill="#161b22" style="animation-delay:0.22s"/>
<rect class="cl" x="334" y="148" width="12" height="12" rx="2.5" fill="#161b22" style="animation-delay:0.22s"/>
<rect class="cl" x="349" y="58" width="12" height="12" rx="2.5" fill="#161b22" style="animation-delay:0.23s"/>
<rect class="cl" x="349" y="73" width="12" height="12" rx="2.5" fill="#161b22" style="animation-delay:0.23s"/>
<rect class="cl" x="349" y="88" width="12" height="12" rx="2.5" fill="#161b22" style="animation-delay:0.23s"/>
<rect class="cl" x="349" y="103" width="12" height="12" rx="2.5" fill="#161b22" style="animation-delay:0.23s"/>
<rect class="cl" x="349" y="118" width="12" height="12" rx="2.5" fill="#161b22" style="animation-delay:0.23s"/>
<rect class="cl" x="349" y="133" width="12" height="12" rx="2.5" fill="#161b22" style="animation-delay:0.23s"/>
<rect class="cl" x="349" y="148" width="12" height="12" rx="2.5" fill="#161b22" style="animation-delay:0.23s"/>
<rect class="cl" x="364" y="58" width="12" height="12" rx="2.5" fill="#161b22" style="animation-delay:0.24s"/>
<rect class="cl" x="364" y="73" width="12" height="12" rx="2.5" fill="#161b22" style="animation-delay:0.24s"/>
<rect class="cl" x="364" y="88" width="12" height="12" rx="2.5" fill="#161b22" style="animation-delay:0.24s"/>
<rect class="cl" x="364" y="103" width="12" height="12" rx="2.5" fill="#161b22" style="animation-delay:0.24s"/>
<rect class="cl" x="364" y="118" width="12" height="12" rx="2.5" fill="#161b22" style="animation-delay:0.24s"/>
<rect class="cl" x="364" y="133" width="12" height="12" rx="2.5" fill="#161b22" style="animation-delay:0.24s"/>
<rect class="cl" x="364" y="148" width="12" height="12" rx="2.5" fill="#161b22" style="animation-delay:0.24s"/>
<text class="m" x="379" y="48" font-size="11" fill="#6e7681">Feb</text>
<rect class="cl" x="379" y="58" width="12" height="12" rx="2.5" fill="#161b22" style="animation-delay:0.25s"/>
<rect class="cl" x="379" y="73" width="12" height="12" rx="2.5" fill="#161b22" style="animation-delay:0.25s"/>
<rect class="cl" x="379" y="88" width="12" height="12" rx="2.5" fill="#4d1c21" style="animation-delay:0.25s"/>
<rect class="cl" x="379" y="103" width="12" height="12" rx="2.5" fill="#161b22" style="animation-delay:0.25s"/>
<rect class="cl" x="379" y="118" width="12" height="12" rx="2.5" fill="#161b22" style="animation-delay:0.25s"/>
<rect class="cl" x="379" y="133" width="12" height="12" rx="2.5" fill="#161b22" style="animation-delay:0.25s"/>
<rect class="cl" x="379" y="148" width="12" height="12" rx="2.5" fill="#161b22" style="animation-delay:0.25s"/>
<rect class="cl" x="394" y="58" width="12" height="12" rx="2.5" fill="#161b22" style="animation-delay:0.26s"/>
<rect class="cl" x="394" y="73" width="12" height="12" rx="2.5" fill="#161b22" style="animation-delay:0.26s"/>
<rect class="cl" x="394" y="88" width="12" height="12" rx="2.5" fill="#161b22" style="animation-delay:0.26s"/>
<rect class="cl" x="394" y="103" width="12" height="12" rx="2.5" fill="#161b22" style="animation-delay:0.26s"/>
<rect class="cl" x="394" y="118" width="12" height="12" rx="2.5" fill="#161b22" style="animation-delay:0.26s"/>
<rect class="cl" x="394" y="133" width="12" height="12" rx="2.5" fill="#161b22" style="animation-delay:0.26s"/>
<rect class="cl" x="394" y="148" width="12" height="12" rx="2.5" fill="#161b22" style="animation-delay:0.26s"/>
<rect class="cl" x="409" y="58" width="12" height="12" rx="2.5" fill="#161b22" style="animation-delay:0.28s"/>
<rect class="cl" x="409" y="73" width="12" height="12" rx="2.5" fill="#161b22" style="animation-delay:0.28s"/>
<rect class="cl" x="409" y="88" width="12" height="12" rx="2.5" fill="#161b22" style="animation-delay:0.28s"/>
<rect class="cl" x="409" y="103" width="12" height="12" rx="2.5" fill="#161b22" style="animation-delay:0.28s"/>
<rect class="cl" x="409" y="118" width="12" height="12" rx="2.5" fill="#161b22" style="animation-delay:0.28s"/>
<rect class="cl" x="409" y="133" width="12" height="12" rx="2.5" fill="#161b22" style="animation-delay:0.28s"/>
<rect class="cl" x="409" y="148" width="12" height="12" rx="2.5" fill="#161b22" style="animation-delay:0.28s"/>
<rect class="cl" x="424" y="58" width="12" height="12" rx="2.5" fill="#161b22" style="animation-delay:0.29s"/>
<rect class="cl" x="424" y="73" width="12" height="12" rx="2.5" fill="#161b22" style="animation-delay:0.29s"/>
<rect class="cl" x="424" y="88" width="12" height="12" rx="2.5" fill="#161b22" style="animation-delay:0.29s"/>
<rect class="cl" x="424" y="103" width="12" height="12" rx="2.5" fill="#161b22" style="animation-delay:0.29s"/>
<rect class="cl" x="424" y="118" width="12" height="12" rx="2.5" fill="#161b22" style="animation-delay:0.29s"/>
<rect class="cl" x="424" y="133" width="12" height="12" rx="2.5" fill="#161b22" style="animation-delay:0.29s"/>
<rect class="cl" x="424" y="148" width="12" height="12" rx="2.5" fill="#161b22" style="animation-delay:0.29s"/>
<text class="m" x="439" y="48" font-size="11" fill="#6e7681">Mar</text>
<rect class="cl" x="439" y="58" width="12" height="12" rx="2.5" fill="#161b22" style="animation-delay:0.30s"/>
<rect class="cl" x="439" y="73" width="12" height="12" rx="2.5" fill="#161b22" style="animation-delay:0.30s"/>
<rect class="cl" x="439" y="88" width="12" height="12" rx="2.5" fill="#161b22" style="animation-delay:0.30s"/>
<rect class="cl" x="439" y="103" width="12" height="12" rx="2.5" fill="#161b22" style="animation-delay:0.30s"/>
<rect class="cl" x="439" y="118" width="12" height="12" rx="2.5" fill="#161b22" style="animation-delay:0.30s"/>
<rect class="cl" x="439" y="133" width="12" height="12" rx="2.5" fill="#161b22" style="animation-delay:0.30s"/>
<rect class="cl" x="439" y="148" width="12" height="12" rx="2.5" fill="#161b22" style="animation-delay:0.30s"/>
<rect class="cl" x="454" y="58" width="12" height="12" rx="2.5" fill="#161b22" style="animation-delay:0.31s"/>
<rect class="cl" x="454" y="73" width="12" height="12" rx="2.5" fill="#161b22" style="animation-delay:0.31s"/>
<rect class="cl" x="454" y="88" width="12" height="12" rx="2.5" fill="#161b22" style="animation-delay:0.31s"/>
<rect class="cl" x="454" y="103" width="12" height="12" rx="2.5" fill="#161b22" style="animation-delay:0.31s"/>
<rect class="cl" x="454" y="118" width="12" height="12" rx="2.5" fill="#161b22" style="animation-delay:0.31s"/>
<rect class="cl" x="454" y="133" width="12" height="12" rx="2.5" fill="#161b22" style="animation-delay:0.31s"/>
<rect class="cl" x="454" y="148" width="12" height="12" rx="2.5" fill="#161b22" style="animation-delay:0.31s"/>
<rect class="cl" x="469" y="58" width="12" height="12" rx="2.5" fill="#161b22" style="animation-delay:0.32s"/>
<rect class="cl" x="469" y="73" width="12" height="12" rx="2.5" fill="#161b22" style="animation-delay:0.32s"/>
<rect class="cl" x="469" y="88" width="12" height="12" rx="2.5" fill="#161b22" style="animation-delay:0.32s"/>
<rect class="cl" x="469" y="103" width="12" height="12" rx="2.5" fill="#161b22" style="animation-delay:0.32s"/>
<rect class="cl" x="469" y="118" width="12" height="12" rx="2.5" fill="#161b22" style="animation-delay:0.32s"/>
<rect class="cl" x="469" y="133" width="12" height="12" rx="2.5" fill="#161b22" style="animation-delay:0.32s"/>
<rect class="cl" x="469" y="148" width="12" height="12" rx="2.5" fill="#161b22" style="animation-delay:0.32s"/>
<rect class="cl" x="484" y="58" width="12" height="12" rx="2.5" fill="#161b22" style="animation-delay:0.34s"/>
<rect class="cl" x="484" y="73" width="12" height="12" rx="2.5" fill="#161b22" style="animation-delay:0.34s"/>
<rect class="cl" x="484" y="88" width="12" height="12" rx="2.5" fill="#161b22" style="animation-delay:0.34s"/>
<rect class="cl" x="484" y="103" width="12" height="12" rx="2.5" fill="#161b22" style="animation-delay:0.34s"/>
<rect class="cl" x="484" y="118" width="12" height="12" rx="2.5" fill="#161b22" style="animation-delay:0.34s"/>
<rect class="cl" x="484" y="133" width="12" height="12" rx="2.5" fill="#161b22" style="animation-delay:0.34s"/>
<rect class="cl" x="484" y="148" width="12" height="12" rx="2.5" fill="#161b22" style="animation-delay:0.34s"/>
<rect class="cl" x="499" y="58" width="12" height="12" rx="2.5" fill="#161b22" style="animation-delay:0.35s"/>
<rect class="cl" x="499" y="73" width="12" height="12" rx="2.5" fill="#161b22" style="animation-delay:0.35s"/>
<rect class="cl" x="499" y="88" width="12" height="12" rx="2.5" fill="#161b22" style="animation-delay:0.35s"/>
<rect class="cl" x="499" y="103" width="12" height="12" rx="2.5" fill="#161b22" style="animation-delay:0.35s"/>
<rect class="cl" x="499" y="118" width="12" height="12" rx="2.5" fill="#161b22" style="animation-delay:0.35s"/>
<rect class="cl" x="499" y="133" width="12" height="12" rx="2.5" fill="#161b22" style="animation-delay:0.35s"/>
<rect class="cl" x="499" y="148" width="12" height="12" rx="2.5" fill="#161b22" style="animation-delay:0.35s"/>
<text class="m" x="514" y="48" font-size="11" fill="#6e7681">Apr</text>
<rect class="cl" x="514" y="58" width="12" height="12" rx="2.5" fill="#161b22" style="animation-delay:0.36s"/>
<rect class="cl" x="514" y="73" width="12" height="12" rx="2.5" fill="#161b22" style="animation-delay:0.36s"/>
<rect class="cl" x="514" y="88" width="12" height="12" rx="2.5" fill="#161b22" style="animation-delay:0.36s"/>
<rect class="cl" x="514" y="103" width="12" height="12" rx="2.5" fill="#161b22" style="animation-delay:0.36s"/>
<rect class="cl" x="514" y="118" width="12" height="12" rx="2.5" fill="#161b22" style="animation-delay:0.36s"/>
<rect class="cl" x="514" y="133" width="12" height="12" rx="2.5" fill="#161b22" style="animation-delay:0.36s"/>
<rect class="cl" x="514" y="148" width="12" height="12" rx="2.5" fill="#161b22" style="animation-delay:0.36s"/>
<rect class="cl" x="529" y="58" width="12" height="12" rx="2.5" fill="#161b22" style="animation-delay:0.37s"/>
<rect class="cl" x="529" y="73" width="12" height="12" rx="2.5" fill="#161b22" style="animation-delay:0.37s"/>
<rect class="cl" x="529" y="88" width="12" height="12" rx="2.5" fill="#161b22" style="animation-delay:0.37s"/>
<rect class="cl" x="529" y="103" width="12" height="12" rx="2.5" fill="#161b22" style="animation-delay:0.37s"/>
<rect class="cl" x="529" y="118" width="12" height="12" rx="2.5" fill="#161b22" style="animation-delay:0.37s"/>
<rect class="cl" x="529" y="133" width="12" height="12" rx="2.5" fill="#161b22" style="animation-delay:0.37s"/>
<rect class="cl" x="529" y="148" width="12" height="12" rx="2.5" fill="#161b22" style="animation-delay:0.37s"/>
<rect class="cl" x="544" y="58" width="12" height="12" rx="2.5" fill="#161b22" style="animation-delay:0.38s"/>
<rect class="cl" x="544" y="73" width="12" height="12" rx="2.5" fill="#161b22" style="animation-delay:0.38s"/>
<rect class="cl" x="544" y="88" width="12" height="12" rx="2.5" fill="#161b22" style="animation-delay:0.38s"/>
<rect class="cl" x="544" y="103" width="12" height="12" rx="2.5" fill="#161b22" style="animation-delay:0.38s"/>
<rect class="cl" x="544" y="118" width="12" height="12" rx="2.5" fill="#161b22" style="animation-delay:0.38s"/>
<rect class="cl" x="544" y="133" width="12" height="12" rx="2.5" fill="#161b22" style="animation-delay:0.38s"/>
<rect class="cl" x="544" y="148" width="12" height="12" rx="2.5" fill="#161b22" style="animation-delay:0.38s"/>
<rect class="cl" x="559" y="58" width="12" height="12" rx="2.5" fill="#161b22" style="animation-delay:0.40s"/>
<rect class="cl" x="559" y="73" width="12" height="12" rx="2.5" fill="#161b22" style="animation-delay:0.40s"/>
<rect class="cl" x="559" y="88" width="12" height="12" rx="2.5" fill="#161b22" style="animation-delay:0.40s"/>
<rect class="cl" x="559" y="103" width="12" height="12" rx="2.5" fill="#161b22" style="animation-delay:0.40s"/>
<rect class="cl" x="559" y="118" width="12" height="12" rx="2.5" fill="#161b22" style="animation-delay:0.40s"/>
<rect class="cl" x="559" y="133" width="12" height="12" rx="2.5" fill="#161b22" style="animation-delay:0.40s"/>
<rect class="cl" x="559" y="148" width="12" height="12" rx="2.5" fill="#161b22" style="animation-delay:0.40s"/>
<text class="m" x="574" y="48" font-size="11" fill="#6e7681">May</text>
<rect class="cl" x="574" y="58" width="12" height="12" rx="2.5" fill="#161b22" style="animation-delay:0.41s"/>
<rect class="cl" x="574" y="73" width="12" height="12" rx="2.5" fill="#161b22" style="animation-delay:0.41s"/>
<rect class="cl" x="574" y="88" width="12" height="12" rx="2.5" fill="#161b22" style="animation-delay:0.41s"/>
<rect class="cl" x="574" y="103" width="12" height="12" rx="2.5" fill="#161b22" style="animation-delay:0.41s"/>
<rect class="cl" x="574" y="118" width="12" height="12" rx="2.5" fill="#161b22" style="animation-delay:0.41s"/>
<rect class="cl" x="574" y="133" width="12" height="12" rx="2.5" fill="#161b22" style="animation-delay:0.41s"/>
<rect class="cl" x="574" y="148" width="12" height="12" rx="2.5" fill="#161b22" style="animation-delay:0.41s"/>
<rect class="cl" x="589" y="58" width="12" height="12" rx="2.5" fill="#161b22" style="animation-delay:0.42s"/>
<rect class="cl" x="589" y="73" width="12" height="12" rx="2.5" fill="#161b22" style="animation-delay:0.42s"/>
<rect class="cl" x="589" y="88" width="12" height="12" rx="2.5" fill="#161b22" style="animation-delay:0.42s"/>
<rect class="cl" x="589" y="103" width="12" height="12" rx="2.5" fill="#161b22" style="animation-delay:0.42s"/>
<rect class="cl" x="589" y="118" width="12" height="12" rx="2.5" fill="#161b22" style="animation-delay:0.42s"/>
<rect class="cl" x="589" y="133" width="12" height="12" rx="2.5" fill="#161b22" style="animation-delay:0.42s"/>
<rect class="cl" x="589" y="148" width="12" height="12" rx="2.5" fill="#161b22" style="animation-delay:0.42s"/>
<rect class="cl" x="604" y="58" width="12" height="12" rx="2.5" fill="#161b22" style="animation-delay:0.43s"/>
<rect class="cl" x="604" y="73" width="12" height="12" rx="2.5" fill="#161b22" style="animation-delay:0.43s"/>
<rect class="cl" x="604" y="88" width="12" height="12" rx="2.5" fill="#161b22" style="animation-delay:0.43s"/>
<rect class="cl" x="604" y="103" width="12" height="12" rx="2.5" fill="#161b22" style="animation-delay:0.43s"/>
<rect class="cl" x="604" y="118" width="12" height="12" rx="2.5" fill="#161b22" style="animation-delay:0.43s"/>
<rect class="cl" x="604" y="133" width="12" height="12" rx="2.5" fill="#161b22" style="animation-delay:0.43s"/>
<rect class="cl" x="604" y="148" width="12" height="12" rx="2.5" fill="#161b22" style="animation-delay:0.43s"/>
<rect class="cl" x="619" y="58" width="12" height="12" rx="2.5" fill="#161b22" style="animation-delay:0.44s"/>
<rect class="cl" x="619" y="73" width="12" height="12" rx="2.5" fill="#161b22" style="animation-delay:0.44s"/>
<rect class="cl" x="619" y="88" width="12" height="12" rx="2.5" fill="#161b22" style="animation-delay:0.44s"/>
<rect class="cl" x="619" y="103" width="12" height="12" rx="2.5" fill="#161b22" style="animation-delay:0.44s"/>
<rect class="cl" x="619" y="118" width="12" height="12" rx="2.5" fill="#161b22" style="animation-delay:0.44s"/>
<rect class="cl" x="619" y="133" width="12" height="12" rx="2.5" fill="#161b22" style="animation-delay:0.44s"/>
<rect class="cl" x="619" y="148" width="12" height="12" rx="2.5" fill="#161b22" style="animation-delay:0.44s"/>
<rect class="cl" x="634" y="58" width="12" height="12" rx="2.5" fill="#161b22" style="animation-delay:0.46s"/>
<rect class="cl" x="634" y="73" width="12" height="12" rx="2.5" fill="#161b22" style="animation-delay:0.46s"/>
<rect class="cl" x="634" y="88" width="12" height="12" rx="2.5" fill="#161b22" style="animation-delay:0.46s"/>
<rect class="cl" x="634" y="103" width="12" height="12" rx="2.5" fill="#161b22" style="animation-delay:0.46s"/>
<rect class="cl" x="634" y="118" width="12" height="12" rx="2.5" fill="#161b22" style="animation-delay:0.46s"/>
<rect class="cl" x="634" y="133" width="12" height="12" rx="2.5" fill="#161b22" style="animation-delay:0.46s"/>
<rect class="cl" x="634" y="148" width="12" height="12" rx="2.5" fill="#161b22" style="animation-delay:0.46s"/>
<text class="m" x="649" y="48" font-size="11" fill="#6e7681">Jun</text>
<rect class="cl" x="649" y="58" width="12" height="12" rx="2.5" fill="#161b22" style="animation-delay:0.47s"/>
<rect class="cl" x="649" y="73" width="12" height="12" rx="2.5" fill="#161b22" style="animation-delay:0.47s"/>
<rect class="cl" x="649" y="88" width="12" height="12" rx="2.5" fill="#161b22" style="animation-delay:0.47s"/>
<rect class="cl" x="649" y="103" width="12" height="12" rx="2.5" fill="#161b22" style="animation-delay:0.47s"/>
<rect class="cl" x="649" y="118" width="12" height="12" rx="2.5" fill="#161b22" style="animation-delay:0.47s"/>
<rect class="cl" x="649" y="133" width="12" height="12" rx="2.5" fill="#161b22" style="animation-delay:0.47s"/>
<rect class="cl" x="649" y="148" width="12" height="12" rx="2.5" fill="#161b22" style="animation-delay:0.47s"/>
<rect class="cl" x="664" y="58" width="12" height="12" rx="2.5" fill="#161b22" style="animation-delay:0.48s"/>
<rect class="cl" x="664" y="73" width="12" height="12" rx="2.5" fill="#161b22" style="animation-delay:0.48s"/>
<rect class="cl" x="664" y="88" width="12" height="12" rx="2.5" fill="#161b22" style="animation-delay:0.48s"/>
<rect class="cl" x="664" y="103" width="12" height="12" rx="2.5" fill="#161b22" style="animation-delay:0.48s"/>
<rect class="cl" x="664" y="118" width="12" height="12" rx="2.5" fill="#161b22" style="animation-delay:0.48s"/>
<rect class="cl" x="664" y="133" width="12" height="12" rx="2.5" fill="#161b22" style="animation-delay:0.48s"/>
<rect class="cl" x="664" y="148" width="12" height="12" rx="2.5" fill="#161b22" style="animation-delay:0.48s"/>
<rect class="cl" x="679" y="58" width="12" height="12" rx="2.5" fill="#161b22" style="animation-delay:0.49s"/>
<rect class="cl" x="679" y="73" width="12" height="12" rx="2.5" fill="#161b22" style="animation-delay:0.49s"/>
<rect class="cl" x="679" y="88" width="12" height="12" rx="2.5" fill="#161b22" style="animation-delay:0.49s"/>
<rect class="cl" x="679" y="103" width="12" height="12" rx="2.5" fill="#161b22" style="animation-delay:0.49s"/>
<rect class="cl" x="679" y="118" width="12" height="12" rx="2.5" fill="#161b22" style="animation-delay:0.49s"/>
<rect class="cl" x="679" y="133" width="12" height="12" rx="2.5" fill="#161b22" style="animation-delay:0.49s"/>
<rect class="cl" x="679" y="148" width="12" height="12" rx="2.5" fill="#161b22" style="animation-delay:0.49s"/>
<rect class="cl" x="694" y="58" width="12" height="12" rx="2.5" fill="#161b22" style="animation-delay:0.50s"/>
<rect class="cl" x="694" y="73" width="12" height="12" rx="2.5" fill="#161b22" style="animation-delay:0.50s"/>
<rect class="cl" x="694" y="88" width="12" height="12" rx="2.5" fill="#161b22" style="animation-delay:0.50s"/>
<rect class="cl" x="694" y="103" width="12" height="12" rx="2.5" fill="#161b22" style="animation-delay:0.50s"/>
<rect class="cl" x="694" y="118" width="12" height="12" rx="2.5" fill="#161b22" style="animation-delay:0.50s"/>
<rect class="cl" x="694" y="133" width="12" height="12" rx="2.5" fill="#161b22" style="animation-delay:0.50s"/>
<rect class="cl" x="694" y="148" width="12" height="12" rx="2.5" fill="#161b22" style="animation-delay:0.50s"/>
<text class="m" x="709" y="48" font-size="11" fill="#6e7681">Jul</text>
<rect class="cl" x="709" y="58" width="12" height="12" rx="2.5" fill="#161b22" style="animation-delay:0.52s"/>
<rect class="cl" x="709" y="73" width="12" height="12" rx="2.5" fill="#161b22" style="animation-delay:0.52s"/>
<rect class="cl" x="709" y="88" width="12" height="12" rx="2.5" fill="#161b22" style="animation-delay:0.52s"/>
<rect class="cl" x="709" y="103" width="12" height="12" rx="2.5" fill="#161b22" style="animation-delay:0.52s"/>
<rect class="cl" x="709" y="118" width="12" height="12" rx="2.5" fill="#161b22" style="animation-delay:0.52s"/>
<rect class="cl" x="709" y="133" width="12" height="12" rx="2.5" fill="#161b22" style="animation-delay:0.52s"/>
<rect class="cl" x="709" y="148" width="12" height="12" rx="2.5" fill="#161b22" style="animation-delay:0.52s"/>
<rect class="cl" x="724" y="58" width="12" height="12" rx="2.5" fill="#161b22" style="animation-delay:0.53s"/>
<rect class="cl" x="724" y="73" width="12" height="12" rx="2.5" fill="#161b22" style="animation-delay:0.53s"/>
<rect class="cl" x="724" y="88" width="12" height="12" rx="2.5" fill="#161b22" style="animation-delay:0.53s"/>
<rect class="cl" x="724" y="103" width="12" height="12" rx="2.5" fill="#161b22" style="animation-delay:0.53s"/>
<rect class="cl" x="724" y="118" width="12" height="12" rx="2.5" fill="#161b22" style="animation-delay:0.53s"/>
<rect class="cl" x="724" y="133" width="12" height="12" rx="2.5" fill="#161b22" style="animation-delay:0.53s"/>
<rect class="cl" x="724" y="148" width="12" height="12" rx="2.5" fill="#161b22" style="animation-delay:0.53s"/>
<rect class="cl" x="739" y="58" width="12" height="12" rx="2.5" fill="#161b22" style="animation-delay:0.54s"/>
<rect class="cl" x="739" y="73" width="12" height="12" rx="2.5" fill="#161b22" style="animation-delay:0.54s"/>
<rect class="cl" x="739" y="88" width="12" height="12" rx="2.5" fill="#161b22" style="animation-delay:0.54s"/>
<rect class="cl" x="739" y="103" width="12" height="12" rx="2.5" fill="#161b22" style="animation-delay:0.54s"/>
<rect class="cl" x="739" y="118" width="12" height="12" rx="2.5" fill="#161b22" style="animation-delay:0.54s"/>
<rect class="cl" x="739" y="133" width="12" height="12" rx="2.5" fill="#161b22" style="animation-delay:0.54s"/>
<rect class="cl" x="739" y="148" width="12" height="12" rx="2.5" fill="#4d1c21" style="animation-delay:0.54s"/>
<rect class="cl" x="754" y="58" width="12" height="12" rx="2.5" fill="#4d1c21" style="animation-delay:0.55s"/>
<rect class="cl" x="754" y="73" width="12" height="12" rx="2.5" fill="#161b22" style="animation-delay:0.55s"/>
<rect class="cl" x="754" y="88" width="12" height="12" rx="2.5" fill="#4d1c21" style="animation-delay:0.55s"/>
<rect class="cl" x="754" y="103" width="12" height="12" rx="2.5" fill="#4d1c21" style="animation-delay:0.55s"/>
<rect class="cl" x="754" y="118" width="12" height="12" rx="2.5" fill="#7d2529" style="animation-delay:0.55s"/>
<rect class="cl" x="754" y="133" width="12" height="12" rx="2.5" fill="#4d1c21" style="animation-delay:0.55s"/>
<rect class="cl" x="754" y="148" width="12" height="12" rx="2.5" fill="#4d1c21" style="animation-delay:0.55s"/>
<text class="m" x="769" y="48" font-size="11" fill="#6e7681">Aug</text>
<rect class="cl" x="769" y="58" width="12" height="12" rx="2.5" fill="#4d1c21" style="animation-delay:0.56s"/>
<rect class="cl" x="769" y="73" width="12" height="12" rx="2.5" fill="#161b22" style="animation-delay:0.56s"/>
<rect class="cl" x="769" y="88" width="12" height="12" rx="2.5" fill="#4d1c21" style="animation-delay:0.56s"/>
<rect class="cl" x="769" y="103" width="12" height="12" rx="2.5" fill="#4d1c21" style="animation-delay:0.56s"/>
<rect class="cl" x="769" y="118" width="12" height="12" rx="2.5" fill="#161b22" style="animation-delay:0.56s"/>
<rect class="cl" x="769" y="133" width="12" height="12" rx="2.5" fill="#161b22" style="animation-delay:0.56s"/>
<rect class="cl" x="769" y="148" width="12" height="12" rx="2.5" fill="#161b22" style="animation-delay:0.56s"/>
<rect class="cl" x="784" y="58" width="12" height="12" rx="2.5" fill="#161b22" style="animation-delay:0.58s"/>
<rect class="cl" x="784" y="73" width="12" height="12" rx="2.5" fill="#161b22" style="animation-delay:0.58s"/>
<rect class="cl" x="784" y="88" width="12" height="12" rx="2.5" fill="#161b22" style="animation-delay:0.58s"/>
<rect class="cl" x="784" y="103" width="12" height="12" rx="2.5" fill="#161b22" style="animation-delay:0.58s"/>
<rect class="cl" x="784" y="118" width="12" height="12" rx="2.5" fill="#161b22" style="animation-delay:0.58s"/>
<rect class="cl" x="784" y="133" width="12" height="12" rx="2.5" fill="#161b22" style="animation-delay:0.58s"/>
<rect class="cl" x="784" y="148" width="12" height="12" rx="2.5" fill="#161b22" style="animation-delay:0.58s"/>
<rect class="cl" x="799" y="58" width="12" height="12" rx="2.5" fill="#161b22" style="animation-delay:0.59s"/>
<rect class="cl" x="799" y="73" width="12" height="12" rx="2.5" fill="#161b22" style="animation-delay:0.59s"/>
<rect class="cl" x="799" y="88" width="12" height="12" rx="2.5" fill="#e5383b" style="animation-delay:0.59s"/>
<rect class="cl" x="799" y="103" width="12" height="12" rx="2.5" fill="#161b22" style="animation-delay:0.59s"/>
<rect class="cl" x="799" y="118" width="12" height="12" rx="2.5" fill="#161b22" style="animation-delay:0.59s"/>
<rect class="cl" x="799" y="133" width="12" height="12" rx="2.5" fill="#161b22" style="animation-delay:0.59s"/>
<rect class="cl" x="799" y="148" width="12" height="12" rx="2.5" fill="#161b22" style="animation-delay:0.59s"/>
<rect class="cl" x="814" y="58" width="12" height="12" rx="2.5" fill="#161b22" style="animation-delay:0.60s"/>
<rect class="cl" x="814" y="73" width="12" height="12" rx="2.5" fill="#4d1c21" style="animation-delay:0.60s"/>
<rect class="cl" x="814" y="88" width="12" height="12" rx="2.5" fill="#161b22" style="animation-delay:0.60s"/>
<rect class="cl" x="814" y="103" width="12" height="12" rx="2.5" fill="#161b22" style="animation-delay:0.60s"/>
<rect class="cl" x="814" y="118" width="12" height="12" rx="2.5" fill="#161b22" style="animation-delay:0.60s"/>
<rect class="cl" x="814" y="133" width="12" height="12" rx="2.5" fill="#161b22" style="animation-delay:0.60s"/>
<rect class="cl" x="814" y="148" width="12" height="12" rx="2.5" fill="#4d1c21" style="animation-delay:0.60s"/>
<rect class="cl" x="829" y="58" width="12" height="12" rx="2.5" fill="#b12e32" style="animation-delay:0.61s"/>
<rect class="cl" x="829" y="73" width="12" height="12" rx="2.5" fill="#161b22" style="animation-delay:0.61s"/>
<rect class="cl" x="829" y="88" width="12" height="12" rx="2.5" fill="#4d1c21" style="animation-delay:0.61s"/>
<rect class="cl" x="829" y="103" width="12" height="12" rx="2.5" fill="#4d1c21" style="animation-delay:0.61s"/>
<rect class="cl" x="829" y="118" width="12" height="12" rx="2.5" fill="#4d1c21" style="animation-delay:0.61s"/>
<rect class="cl" x="829" y="133" width="12" height="12" rx="2.5" fill="#4d1c21" style="animation-delay:0.61s"/>
<rect class="cl" x="829" y="148" width="12" height="12" rx="2.5" fill="#161b22" style="animation-delay:0.61s"/>
<rect class="cl" x="844" y="58" width="12" height="12" rx="2.5" fill="#4d1c21" style="animation-delay:0.62s"/>
<rect class="cl" x="844" y="73" width="12" height="12" rx="2.5" fill="#4d1c21" style="animation-delay:0.62s"/>
<rect class="cl" x="844" y="88" width="12" height="12" rx="2.5" fill="#161b22" style="animation-delay:0.62s"/>
<rect class="cl" x="844" y="103" width="12" height="12" rx="2.5" fill="#161b22" style="animation-delay:0.62s"/>
<text class="m" x="46" y="83" font-size="11" fill="#6e7681" text-anchor="end">Mon</text>
<text class="m" x="46" y="113" font-size="11" fill="#6e7681" text-anchor="end">Wed</text>
<text class="m" x="46" y="143" font-size="11" fill="#6e7681" text-anchor="end">Fri</text>
<text class="m" x="800" y="191" font-size="11" fill="#6e7681">Less</text>
<rect x="834" y="181" width="11" height="11" rx="2.5" fill="#161b22"/>
<rect x="849" y="181" width="11" height="11" rx="2.5" fill="#4d1c21"/>
<rect x="864" y="181" width="11" height="11" rx="2.5" fill="#7d2529"/>
<rect x="879" y="181" width="11" height="11" rx="2.5" fill="#b12e32"/>
<rect x="894" y="181" width="11" height="11" rx="2.5" fill="#e5383b"/>
<text class="m" x="928" y="191" font-size="11" fill="#6e7681">More</text>
</g>
</svg>
